<svg width="1000" height="1000" viewBox="0 0 1000 1000" fill="none" xmlns="http://www.w3.org/2000/svg">
<rect width="1000" height="1000" fill="white"/>
<circle cx="500" cy="500" r="425" fill="#86D1D6"/>
<path d="M794 671C868.4 560.6 785.667 526.333 735 523C710 536.333 660.8 568.2 664 589C668 615 671 615 644 671C622.4 715.8 501 764.333 443 783C529 791.667 719.6 781.4 794 671Z" fill="black"/>
<path d="M258 604C247 582 260 461 269 416L427 298L698 426C692 481 677.2 594.8 666 610C652 629 615 647 589 654C563 661 448 666 385 661C322 656 269 626 258 604Z" fill="white"/>
<path d="M587 250C500.92 223.649 376 240 315 302C283.8 350.8 263 415.667 264 428C302.333 398.667 366 346 428 346C492.498 346 603.667 432 636 468L739 457C736 439.667 738.8 386 718 346C692 296 636 265 587 250Z" fill="black"/>
<path d="M688 435C668 434.2 642.333 458.667 632 471L646 579C662.333 573 700.4 558.6 722 549C749 537 754 471 741 453C728 435 713 436 688 435Z" fill="white"/>
<path d="M351.173 564.155C349.962 560.194 345.769 557.964 341.808 559.174C337.847 560.385 335.617 564.577 336.827 568.539L351.173 564.155ZM404.706 550L412.054 548.497C411.299 544.805 407.921 542.247 404.163 542.52C400.404 542.793 397.431 545.812 397.218 549.575L404.706 550ZM482.885 569.32C484.528 565.517 482.776 561.103 478.973 559.461C475.171 557.819 470.757 559.571 469.115 563.373L482.885 569.32ZM336.827 568.539C337.899 572.045 341.397 579.041 347.976 584.409C354.978 590.122 365.268 593.771 378.569 589.894L374.372 575.493C366.214 577.871 360.975 575.655 357.459 572.787C353.52 569.573 351.513 565.268 351.173 564.155L336.827 568.539ZM378.569 589.894C403.914 582.507 411.598 560.922 412.194 550.425L397.218 549.575C396.872 555.662 391.945 570.371 374.372 575.493L378.569 589.894ZM397.358 551.503C398.415 556.672 402.078 565.874 408.174 573.903C414.256 581.913 423.909 590.193 437.176 590.193V575.193C430.68 575.193 424.92 571.154 420.12 564.832C415.333 558.527 412.644 551.383 412.054 548.497L397.358 551.503ZM437.176 590.193C454.412 590.193 465.687 585.733 472.852 580.628C476.395 578.104 478.808 575.509 480.384 573.423C481.17 572.382 481.746 571.473 482.149 570.766C482.35 570.413 482.509 570.11 482.63 569.866C482.691 569.744 482.742 569.637 482.784 569.546C482.805 569.5 482.824 569.458 482.841 569.421C482.85 569.402 482.858 569.384 482.865 569.367C482.869 569.359 482.872 569.351 482.876 569.343C482.877 569.339 482.88 569.333 482.881 569.331C482.883 569.326 482.885 569.32 476 566.347C469.115 563.373 469.117 563.368 469.119 563.363C469.12 563.361 469.122 563.355 469.124 563.352C469.127 563.345 469.13 563.339 469.133 563.332C469.138 563.319 469.143 563.307 469.148 563.296C469.158 563.275 469.166 563.256 469.173 563.242C469.187 563.212 469.195 563.197 469.196 563.194C469.198 563.19 469.174 563.238 469.121 563.332C469.014 563.519 468.789 563.887 468.417 564.379C467.677 565.358 466.34 566.85 464.148 568.412C459.842 571.48 451.706 575.193 437.176 575.193V590.193Z" fill="black"/>
</svg>
